<svg width="496" height="496" viewBox="0 0 496 496" fill="none" xmlns="http://www.w3.org/2000/svg">
<path d="M82.3837 244C85.3534 244.116 87.8831 245.282 89.9729 247.497C92.0627 249.596 93.1625 252.219 93.2725 255.367V284.572H146.892V255.367C147.002 252.103 148.156 249.421 150.356 247.322C152.556 245.107 155.196 244 158.275 244C161.245 244.116 163.775 245.282 165.864 247.497C167.954 249.596 169.054 252.219 169.164 255.367V341.059C168.504 348.054 164.875 351.843 158.275 352.426C155.196 352.426 152.501 351.377 150.191 349.278C147.991 347.063 146.892 344.323 146.892 341.059V308.006H93.2725V341.059C92.6126 348.054 88.983 351.843 82.3837 352.426C79.3041 352.426 76.6094 351.377 74.2996 349.278C72.0999 347.063 71 344.323 71 341.059V255.367C71.11 252.103 72.2649 249.421 74.4646 247.322C76.6644 245.107 79.3041 244 82.3837 244Z" fill="white"/>
<path d="M242.251 354C236.532 354 230.867 353.3 225.258 351.901C219.758 350.502 214.479 348.462 209.42 345.78C204.36 342.982 199.906 339.31 196.056 334.763C192.206 330.216 190.117 324.795 189.787 318.499V311.154V255.367C189.787 252.103 190.887 249.421 193.086 247.322C195.396 245.107 198.091 244 201.171 244C207.77 244.583 211.344 248.372 211.894 255.367V313.078C212.114 316.692 213.379 319.723 215.689 322.171C218.109 324.503 220.748 326.369 223.608 327.768C226.578 329.167 229.602 330.216 232.682 330.915C235.872 331.615 239.061 331.965 242.251 331.965C245.441 331.965 248.575 331.615 251.655 330.915C254.845 330.216 257.869 329.167 260.729 327.768C263.699 326.369 266.338 324.503 268.648 322.171C271.068 319.723 272.388 316.692 272.608 313.078V255.367C272.608 252.103 273.707 249.421 275.907 247.322C278.217 245.107 280.912 244 283.991 244C290.591 244.583 294.22 248.372 294.88 255.367V311.154V318.499C294.55 324.795 292.405 330.216 288.446 334.763C284.596 339.31 280.142 342.982 275.082 345.78C270.023 348.462 264.688 350.502 259.079 351.901C253.58 353.3 247.97 354 242.251 354Z" fill="white"/>
<path d="M427.689 299.962C429.779 304.625 430.824 309.347 430.824 314.127C430.824 318.79 429.724 323.454 427.524 328.117C425.325 332.664 421.75 336.745 416.801 340.359C411.851 343.857 405.527 345.605 397.828 345.605H396.838C396.178 345.722 395.518 345.78 394.858 345.78H328.535C325.566 345.664 323.036 344.556 320.946 342.458C318.966 340.242 317.922 337.561 317.812 334.413V254.318C317.922 251.17 318.966 248.547 320.946 246.448C323.036 244.233 325.566 243.067 328.535 242.951L394.858 244.116C395.518 244.116 396.178 244.175 396.838 244.291H397.828C405.527 244.524 411.851 246.39 416.801 249.887C421.75 253.385 425.325 257.407 427.524 261.954C429.724 266.385 430.824 270.873 430.824 275.42C430.824 280.084 430.824 287.808 420.982 294.055C420.872 294.288 420.762 294.463 420.652 294.58C425.161 297.961 428.461 301.808 427.689 299.962ZM398.818 322.346C400.907 322.463 402.612 322.055 403.932 321.122C405.362 320.189 406.407 319.14 407.067 317.974C407.727 316.692 408.056 315.409 408.056 314.127C408.056 313.311 407.727 312.203 407.067 310.804C406.407 309.289 405.362 308.064 403.932 307.132C402.612 306.199 400.907 305.674 398.818 305.558H388.259H340.084V317.625C340.084 320.772 341.624 322.346 344.704 322.346H346.023H398.818ZM404.097 281.716C405.417 280.9 406.407 279.967 407.067 278.918C407.727 277.752 408.056 276.586 408.056 275.42C408.056 274.254 407.727 273.147 407.067 272.097C406.407 270.931 405.362 269.94 403.932 269.124C402.612 268.192 400.907 267.667 398.818 267.55L344.704 266.385C341.624 266.385 340.084 267.958 340.084 271.106V282.124L398.818 283.29C400.907 283.173 402.667 282.648 404.097 281.716Z" fill="white"/>
<path d="M66 152.375C66 150.042 66.7917 148.083 68.375 146.5C70.0417 144.833 72.0417 144 74.375 144H147.125C149.458 144 151.458 144.792 153.125 146.375C154.708 148.042 155.5 150.042 155.5 152.375C155.5 154.708 154.667 156.708 153 158.375C151.417 159.958 149.458 160.75 147.125 160.75H119.25V211.375C118.75 216.375 116 219.083 111 219.5C108.667 219.5 106.625 218.75 104.875 217.25C103.208 215.667 102.375 213.708 102.375 211.375V160.75H74.375C72.0417 160.75 70.0833 159.917 68.5 158.25C66.8333 156.667 66 154.708 66 152.375Z" fill="white"/>
<path d="M191.875 144H197.625H240.125C242.458 144.083 244.375 144.958 245.875 146.625C247.458 148.292 248.25 150.292 248.25 152.625C247.833 157.625 245.125 160.333 240.125 160.75H196.125C192.958 160.917 190.333 162.125 188.25 164.375C186.167 166.625 184.625 169.208 183.625 172.125C182.708 174.958 182.25 177.875 182.25 180.875C182.25 183.875 182.708 186.833 183.625 189.75C184.625 192.583 186.167 195.125 188.25 197.375C190.333 199.625 192.958 200.833 196.125 201H240.125C242.458 201.083 244.375 201.958 245.875 203.625C247.458 205.292 248.25 207.292 248.25 209.625C248.167 211.875 247.333 213.792 245.75 215.375C244.25 216.875 242.375 217.667 240.125 217.75H194.25H191.875C186.042 217.417 181.208 215.208 177.375 211.125C173.625 206.958 170.917 202.25 169.25 197C167.667 191.75 166.875 186.375 166.875 180.875C166.875 175.375 167.708 170 169.375 164.75C171.042 159.5 173.75 154.833 177.5 150.75C181.25 146.583 186.042 144.333 191.875 144ZM248 180.375C248 182.708 247.167 184.667 245.5 186.25C243.917 187.917 241.958 188.75 239.625 188.75H201.875C199.542 188.75 197.542 187.958 195.875 186.375C194.292 184.708 193.5 182.708 193.5 180.375C193.5 178.042 194.292 176.042 195.875 174.375C197.542 172.792 199.542 172 201.875 172H239.625C241.958 172 243.917 172.833 245.5 174.5C247.167 176.083 248 178.042 248 180.375Z" fill="white"/>
<path d="M289.25 160.75C286.083 160.917 283.417 162.125 281.25 164.375C279.167 166.625 277.667 169.208 276.75 172.125C275.833 174.958 275.375 177.875 275.375 180.875C275.375 183.875 275.792 186.833 276.625 189.75C277.542 192.667 279.083 195.25 281.25 197.5C283.417 199.667 286.083 200.833 289.25 201H330.5C335.75 201.5 338.625 204.375 339.125 209.625C339.042 211.958 338.167 213.917 336.5 215.5C334.833 217 332.833 217.75 330.5 217.75H290.625H284.875C279.042 217.417 274.25 215.208 270.5 211.125C266.75 206.958 264.042 202.25 262.375 197C260.792 191.75 260 186.375 260 180.875C260 176.792 260.458 172.75 261.375 168.75C262.292 164.75 263.708 160.958 265.625 157.375C267.625 153.708 270.25 150.583 273.5 148C276.833 145.417 280.625 144.083 284.875 144H287.25H330.5C335.75 144.5 338.625 147.375 339.125 152.625C339.125 154.958 338.25 156.917 336.5 158.5C334.833 160 332.833 160.75 330.5 160.75H289.25Z" fill="white"/>
<path d="M359.25 142C361.5 142.083 363.417 142.917 365 144.5C366.583 146 367.417 147.875 367.5 150.125V171H408.125V150.125C408.208 147.792 409.083 145.875 410.75 144.375C412.417 142.792 414.417 142 416.75 142C419 142.083 420.917 142.917 422.5 144.5C424.083 146 424.917 147.875 425 150.125V211.375C424.5 216.375 421.75 219.083 416.75 219.5C414.417 219.5 412.375 218.75 410.625 217.25C408.958 215.667 408.125 213.708 408.125 211.375V187.75H367.5V211.375C367 216.375 364.25 219.083 359.25 219.5C356.917 219.5 354.875 218.75 353.125 217.25C351.458 215.667 350.625 213.708 350.625 211.375V150.125C350.708 147.792 351.583 145.875 353.25 144.375C354.917 142.792 356.917 142 359.25 142Z" fill="white"/>
<path d="M173.413 95.1744C173.413 97.3906 172.864 99.4069 171.766 101.223C170.668 103.004 169.02 104.421 166.824 105.474C164.627 106.491 161.863 107 158.532 107C156.994 107 155.566 106.909 154.249 106.728C152.931 106.546 151.668 106.292 150.46 105.965C149.288 105.601 148.135 105.147 147 104.602V96.1553C148.977 97.0636 150.99 97.8265 153.04 98.4441C155.127 99.0618 157.122 99.3706 159.026 99.3706C160.234 99.3706 161.204 99.2252 161.936 98.9346C162.705 98.6076 163.254 98.1898 163.584 97.6812C163.95 97.1362 164.133 96.5186 164.133 95.8283C164.133 94.9927 163.84 94.2843 163.254 93.703C162.705 93.0854 161.882 92.5041 160.783 91.9591C159.685 91.3778 158.349 90.7239 156.775 89.9973C155.603 89.4886 154.45 88.9074 153.315 88.2534C152.217 87.5631 151.21 86.782 150.295 85.9101C149.416 85.0018 148.702 83.9301 148.153 82.6948C147.641 81.4233 147.384 79.9337 147.384 78.2262C147.384 75.792 147.952 73.7575 149.087 72.1226C150.258 70.4514 151.887 69.1798 153.974 68.3079C156.061 67.436 158.513 67 161.332 67C163.639 67 165.762 67.2543 167.702 67.7629C169.643 68.2716 171.528 68.9255 173.358 69.7248L170.393 76.9728C168.636 76.2098 166.988 75.6285 165.451 75.2289C163.95 74.7929 162.486 74.5749 161.058 74.5749C160.069 74.5749 159.246 74.7203 158.587 75.0109C157.928 75.2652 157.434 75.6467 157.104 76.1553C156.775 76.6276 156.61 77.1907 156.61 77.8447C156.61 78.6076 156.866 79.2797 157.379 79.861C157.891 80.406 158.697 80.9691 159.795 81.5504C160.893 82.1317 162.339 82.8401 164.133 83.6758C166.073 84.5477 167.739 85.4923 169.13 86.5095C170.521 87.5268 171.583 88.7257 172.315 90.1063C173.047 91.4505 173.413 93.1399 173.413 95.1744Z" fill="white"/>
<path d="M201.83 106.455L193.044 77.0817H192.824C192.897 77.8084 192.97 78.8619 193.044 80.2425C193.117 81.5867 193.19 83.04 193.263 84.6022C193.336 86.1281 193.373 87.5631 193.373 88.9074V106.455H185.026V67.545H197.656L206.387 96.3188H206.607L215.613 67.545H228.188V106.455H219.512V88.6894C219.512 87.4541 219.53 86.0917 219.567 84.6022C219.64 83.0763 219.695 81.6412 219.731 80.297C219.805 78.9164 219.86 77.8629 219.896 77.1362H219.676L210.616 106.455H201.83Z" fill="white"/>
<path d="M266.358 106.455L263.942 98.1172H250.379L247.962 106.455H237.749L251.092 67.3815H263.064L276.572 106.455H266.358ZM259.549 82.5858C259.366 81.9319 259.11 81.0599 258.78 79.97C258.487 78.8438 258.176 77.6994 257.847 76.5368C257.554 75.3742 257.316 74.3933 257.133 73.594C256.986 74.3933 256.749 75.3924 256.419 76.5913C256.126 77.7539 255.833 78.8983 255.54 80.0245C255.248 81.1144 255.01 81.9682 254.827 82.5858L252.52 90.3787H261.855L259.549 82.5858Z" fill="white"/>
<path d="M298.21 67.545C301.761 67.545 304.69 67.9809 306.996 68.8529C309.339 69.6885 311.096 70.9782 312.268 72.7221C313.439 74.4296 314.025 76.5731 314.025 79.1526C314.025 80.8238 313.714 82.3134 313.091 83.6213C312.469 84.9292 311.627 86.0736 310.565 87.0545C309.54 88.0354 308.35 88.8529 306.996 89.5068L318.473 106.455H307.984L299.143 91.8501H295.464V106.455H286.129V67.545H298.21ZM297.825 74.8474H295.464V84.6022H297.825C299.326 84.6022 300.571 84.4387 301.56 84.1117C302.548 83.7484 303.28 83.1853 303.756 82.4223C304.269 81.6231 304.525 80.6421 304.525 79.4796C304.525 78.426 304.287 77.5722 303.811 76.9183C303.335 76.228 302.603 75.7193 301.614 75.3924C300.626 75.0291 299.363 74.8474 297.825 74.8474Z" fill="white"/>
<path d="M343.841 106.455H334.506V75.2289H324.347V67.545H354V75.2289H343.841V106.455Z" fill="white"/>
<circle cx="248" cy="248" r="237.5" stroke="white" stroke-width="21"/>
</svg>
